<?xml version="1.0" encoding="utf-8"?>
<!-- Svg Vector Icons : http://www.onlinewebfonts.com/icon -->
<!DOCTYPE svg PUBLIC "-//W3C//DTD SVG 1.1//EN" "http://www.w3.org/Graphics/SVG/1.1/DTD/svg11.dtd">
<svg version="1.1" xmlns="http://www.w3.org/2000/svg" xmlns:xlink="http://www.w3.org/1999/xlink" x="0px" y="0px" viewBox="0 0 1000 1000" enable-background="new 0 0 1000 1000" xml:space="preserve">
<metadata> Svg Vector Icons : http://www.onlinewebfonts.com/icon </metadata>
<g><g transform="translate(0.000000,492.000000) scale(0.100000,-0.100000)"><path d="M4889.1,4809.6c-247.5-45.9-483-175.6-626.7-349.3c-45.9-55.9-143.7-225.5-217.6-379.2c-73.9-155.7-161.7-313.4-197.6-355.3c-81.8-91.8-227.5-163.7-421.1-203.6c-195.6-41.9-347.3-101.8-447.1-179.6c-45.9-33.9-125.8-77.8-181.6-97.8c-267.5-99.8-598.8-291.4-898.2-516.9c-347.3-263.5-860.3-838.3-1105.8-1237.5C280.5,652,45-385.9,110.8-1507.6c107.8-1822.3,756.5-3045.8,1768.4-3339.2c193.6-55.9,469.1-99.8,808.4-125.7c1033.9-79.8,1892.2,269.5,3942,1604.7C7737.4-2645.3,8671.5-1920.8,9294.2-1298c309.4,309.4,467.1,503,554.9,678.6C9897-521.6,9903-491.7,9899-326c-14,604.8-283.4,1532.9-630.7,2181.6c-55.9,103.8-159.7,279.4-227.5,387.2c-69.9,109.8-125.7,219.6-125.7,245.5c0,85.8-101.8,568.8-169.6,802.4c-135.7,475-333.3,828.3-598.8,1075.8c-249.5,233.5-505,331.3-858.3,331.3c-239.5,0-365.3-22-644.7-109.8c-101.8-31.9-217.6-57.9-259.5-57.9c-89.8,0-305.4,53.9-608.8,151.7C5380.1,4807.6,5106.7,4847.5,4889.1,4809.6z M5336.2,4382.4c73.8-16,247.5-65.9,385.2-109.8c548.9-175.6,700.6-185.6,1061.8-69.9c279.4,89.8,572.8,113.8,756.5,59.9c375.3-109.8,676.6-540.9,854.3-1213.5c10-41.9,14-75.8,10-75.8c-6,0-49.9,29.9-97.8,65.9c-47.9,37.9-137.7,93.8-199.6,125.8c-105.8,53.9-117.8,67.9-187.6,217.6c-145.7,307.4-297.4,469-560.8,596.8c-123.8,57.9-141.7,61.9-369.2,61.9c-279.4-2-361.3-27.9-684.6-227.5c-295.4-179.6-295.4-179.6-604.8-91.8c-205.6,59.9-281.4,71.9-359.3,63.9c-205.6-24-339.3-135.7-518.9-431.1c-257.5-421.1-363.3-509-698.6-582.8c-243.5-51.9-359.3-99.8-489-197.6c-125.7-93.8-235.5-251.5-301.4-433.1c-55.9-153.7-93.8-457.1-77.8-604.8c26-227.5-79.8-696.6-181.6-802.4c-29.9-33.9-123.7-111.8-207.6-177.6C2593.8,348.6,2474,175,2416.2-100.5c-43.9-213.6-24-327.3,97.8-558.9c289.4-544.9,301.4-582.8,331.3-1017.9c33.9-473,115.8-696.6,319.4-882.2l115.8-105.8l-45.9-259.5c-63.9-381.2-155.7-748.5-183.6-748.5c-8,0-47.9,63.9-91.8,139.7c-79.8,143.7-251.5,327.3-421.1,451.1c-201.6,147.7-327.3,301.4-371.3,451.1c-33.9,117.8-23.9,317.4,29.9,528.9c99.8,389.2,71.9,618.7-163.7,1403.2c-101.8,333.3-131.7,505-119.8,676.6c14,195.6,63.9,287.4,263.5,481s285.4,299.4,435.1,540.9c173.6,275.4,213.6,427.1,245.5,924.1c39.9,580.8,111.8,840.3,285.4,1019.9c95.8,97.8,177.6,137.7,409.2,189.6c255.5,57.9,415.2,137.7,566.9,289.4c103.8,105.8,143.7,165.7,265.5,417.2c159.7,335.3,197.6,391.2,299.4,459.1C4853.2,4410.4,5070.8,4438.3,5336.2,4382.4z M7124.6,3630c89.8-22,259.5-133.7,291.4-191.6c16-33.9,2-35.9-223.6-37.9c-133.7,0-293.4-12-353.3-25.9c-596.8-137.7-1183.6-487-1750.5-1043.9C4418.1,1675.9,3955,815.7,3679.6-290.1c-107.8-429.1-257.5-1263.4-305.4-1702.5c-25.9-237.5-77.8-111.8-109.8,265.5c-47.9,552.9-103.8,754.5-305.4,1097.8c-131.7,229.5-151.7,273.4-151.7,367.2c0,187.6,103.8,349.3,335.3,517c281.4,205.6,361.3,323.3,453.1,682.6c43.9,173.7,55.9,275.4,69.9,588.8c16,401.2,33.9,487,129.7,632.7c69.9,105.8,191.6,169.7,415.2,213.6c427.1,85.8,662.7,273.5,950.1,754.5c111.8,187.6,167.7,245.5,233.5,245.5c27.9,0,147.7-27.9,263.5-61.9c341.3-101.8,485-73.8,876.2,165.7C6799.3,3639.9,6943,3675.9,7124.6,3630z M7647.5,2925.4c650.7-221.6,1227.5-962.1,1592.8-2047.9C9376,474.4,9493.8-76.5,9493.8-318c0-141.7-41.9-213.6-293.4-491c-536.9-590.8-1566.8-1413.1-2720.5-2169.6C4773.4-4096.4,3903.1-4513.5,3166.6-4565.4l-189.6-12l113.8,125.7c219.6,245.5,393.2,666.7,505,1217.5c25.9,137.7,103.8,628.7,169.7,1093.8C3893.2-1240.2,3989-711.2,4086.8-342c319.4,1203.6,822.3,2037.9,1604.7,2666.6c429.1,343.3,826.3,558.9,1179.6,636.7C7090.7,3011.2,7446,2993.3,7647.5,2925.4z M2537.9,2640c-35.9-97.8-71.9-371.2-89.8-684.6c-12-253.5-27.9-385.2-57.9-479c-63.9-203.6-225.5-439.1-483-708.6c-125.7-131.7-253.5-279.4-281.4-329.3C1541.9,292.7,1508,135,1508-88.5c0-235.5,37.9-427.1,169.7-856.3c97.8-321.3,141.7-510.9,161.7-712.6c10-103.8,4-169.6-37.9-333.3c-71.9-279.4-85.8-517-43.9-684.6c69.9-277.4,221.6-493,485-694.6c281.4-213.6,427.1-415.2,513-700.6l31.9-109.8l-53.9-55.9c-113.8-117.8-307.4-197.6-546.9-225.5c-143.7-18-301.4,25.9-477,129.7c-582.8,343.3-988,1165.6-1147.7,2335.3C510-1627.4,500-884.9,540-549.6C609.8,27.3,761.5,562.2,973.1,983.3c235.5,463.1,690.6,1023.9,1105.8,1361.2c153.7,123.8,443.1,329.3,467.1,329.3C2549.9,2673.9,2545.9,2657.9,2537.9,2640z"/><path d="M5843.2-132.4c-153.7-77.8-211.6-173.6-211.6-357.3c0-125.7,8-153.7,57.9-225.5c63.9-91.8,223.6-183.6,319.4-183.6c351.3,0,546.9,401.2,327.3,668.6C6210.5-78.5,6024.8-42.6,5843.2-132.4z"/><path d="M4833.3-527.6c-87.8-37.9-205.6-177.6-221.6-261.5c-33.9-189.6,26-345.3,175.6-453.1c55.9-37.9,91.8-45.9,215.6-45.9s159.7,8,215.6,45.9c149.7,107.8,209.6,263.5,175.6,453.1c-16,85.8-135.7,225.5-225.5,263.5C5086.7-491.7,4911.1-493.7,4833.3-527.6z"/><path d="M5731.4-1322c-101.8-22-189.6-83.8-251.5-171.7c-39.9-59.9-47.9-95.8-47.9-225.6c0-171.6,20-215.5,157.7-325.3c63.9-51.9,93.8-61.9,207.6-67.9c109.8-4,147.7,2,211.6,39.9c121.8,71.8,195.6,177.6,207.6,293.4c14,155.7-10,235.5-97.8,331.3C6012.9-1332,5875.1-1288.1,5731.4-1322z"/></g></g>
</svg>